<svg version="1.1" id="Layer_1" xmlns="http://www.w3.org/2000/svg" xmlns:xlink="http://www.w3.org/1999/xlink" x="0px" y="0px"
	 width="100%" viewBox="0 0 974 632" enable-background="new 0 0 974 632" xml:space="preserve">
<path fill="#081F3D" opacity="1.000000" stroke="none" 
	d="
M679.000000,633.000000 
	C452.666656,633.000000 226.833328,633.000000 1.000000,633.000000 
	C1.000000,422.333344 1.000000,211.666672 1.000000,1.000000 
	C325.666656,1.000000 650.333313,1.000000 975.000000,1.000000 
	C975.000000,211.666672 975.000000,422.333344 975.000000,633.000000 
	C876.500000,633.000000 778.000000,633.000000 679.000000,633.000000 
M768.173584,130.815277 
	C758.101013,130.815979 748.028503,130.816681 737.037109,130.643860 
	C725.358826,131.583862 713.680481,132.523865 701.210571,133.436127 
	C692.101929,135.069046 682.993286,136.701965 673.038818,138.410400 
	C663.026001,141.293243 653.013245,144.176086 642.249023,147.075180 
	C630.823364,152.022995 619.397644,156.970810 607.261536,162.025650 
	C597.122803,168.517578 586.984009,175.009491 576.211304,181.812408 
	C566.427307,191.436386 556.643311,201.060364 546.268311,211.039703 
	C536.470337,222.736786 528.848267,235.771698 523.007019,249.810745 
	C509.682220,281.835754 507.901825,315.112976 513.409912,348.909698 
	C517.960327,376.830414 529.069641,402.034821 547.148682,424.756622 
	C556.722229,434.186371 566.295776,443.616119 576.225891,453.623383 
	C586.367859,460.156525 596.509888,466.689667 607.123657,473.742889 
	C619.409485,478.852234 631.695312,483.961548 644.540894,489.546082 
	C654.693848,492.019714 664.846863,494.493347 675.715515,497.301239 
	C686.477417,498.714661 697.239258,500.128082 708.911682,501.778015 
	C722.940125,501.785522 736.968567,501.793060 751.863770,501.889801 
	C764.245239,500.667542 776.626709,499.445251 789.908691,498.308502 
	C803.604675,496.528198 817.300659,494.747925 831.856934,493.032349 
	C837.765869,492.096100 843.647217,490.799164 849.593018,490.344757 
	C853.874817,490.017517 855.044739,488.541077 855.031677,484.258179 
	C854.875793,433.012024 854.933716,381.765228 854.918884,330.518585 
	C854.918457,328.910675 854.737183,327.302826 854.647888,325.821594 
	C846.474609,325.821594 838.712646,325.821594 830.048645,325.594635 
	C816.346924,325.674286 802.645264,325.753937 788.031799,325.630157 
	C775.688416,325.698914 763.345032,325.767670 750.190613,325.630768 
	C747.261658,325.630768 744.332703,325.630768 741.024170,325.630768 
	C741.024170,328.005737 741.029480,329.804413 741.023376,331.602997 
	C740.975403,345.717896 740.799622,359.834229 740.955994,373.946838 
	C741.000061,377.917358 739.486755,379.946777 735.725891,380.078857 
	C726.827393,380.391205 717.922119,380.508453 708.391724,380.319214 
	C706.531738,379.786163 704.621033,379.386139 702.820068,378.698547 
	C690.758362,374.093445 682.812012,365.156677 676.955688,353.249054 
	C675.616943,348.116272 673.920349,343.046051 673.010071,337.838379 
	C670.746216,324.888123 673.281189,312.368622 677.622803,299.533661 
	C683.042236,285.523956 691.770325,273.873108 703.599792,263.740875 
	C713.735229,255.731888 724.732544,249.312622 737.961304,245.385361 
	C747.991333,243.658234 758.021301,241.931091 768.968323,240.365234 
	C779.309998,240.833923 789.651672,241.302628 800.797241,241.978821 
	C812.943420,244.460037 825.089661,246.941269 837.673401,249.511871 
	C837.673401,236.721786 837.673523,224.075897 837.673401,211.430008 
	C837.673279,190.265503 837.729309,169.100555 837.570190,147.937256 
	C837.556885,146.171158 836.437439,143.179123 835.249023,142.847870 
	C823.901917,139.685028 812.428894,136.973404 800.199280,133.893951 
	C789.799133,132.936829 779.398926,131.979706 768.173584,130.815277 
M303.967072,454.757629 
	C310.536102,465.631897 317.462921,476.311768 323.521698,487.463257 
	C326.507050,492.957916 330.026031,495.240845 336.925293,493.975067 
	C347.282288,493.927826 357.639252,493.880554 368.924774,493.974030 
	C378.948914,493.927124 388.973053,493.880219 399.925568,493.973572 
	C412.281769,493.926697 424.637939,493.879822 437.923065,493.973358 
	C459.130737,493.973358 480.338409,493.973358 502.510712,493.973358 
	C496.274628,485.804901 490.756470,478.537720 485.197083,471.302185 
	C469.480652,450.847260 453.747314,430.405334 437.806793,409.319031 
	C427.480682,395.758026 417.154602,382.196991 406.985260,368.841827 
	C415.184113,362.496582 423.130707,356.346558 431.715942,349.956665 
	C440.533112,340.037628 450.451965,330.880768 457.946838,320.046936 
	C475.604218,294.523285 479.511383,265.564392 474.489532,235.528259 
	C469.527771,205.851364 455.126556,181.310822 430.756622,162.191147 
	C419.837250,156.139374 408.917877,150.087601 397.456116,143.570206 
	C387.974304,140.703140 378.492493,137.836060 368.346893,134.560165 
	C353.897400,133.236649 339.447876,131.913132 324.091614,130.336227 
	C307.723999,130.657639 291.356384,130.979050 274.088715,131.178436 
	C266.625275,131.462051 259.156586,131.649170 251.699738,132.054199 
	C242.771866,132.539078 233.854111,133.210052 224.015457,133.638474 
	C212.344284,134.404678 200.673126,135.170883 188.081055,135.791046 
	C177.720245,136.546646 167.359421,137.302246 156.088760,137.933792 
	C144.502869,138.687027 132.916992,139.440247 121.244476,140.199097 
	C121.244476,258.377899 121.244476,376.052612 121.244476,493.833588 
	C133.388016,493.833588 145.191925,493.833588 157.923660,493.979431 
	C168.281265,493.930634 178.638870,493.881836 189.924240,493.978516 
	C201.614868,493.930359 213.305496,493.882172 225.924042,493.978851 
	C238.995193,493.978851 252.066345,493.978851 265.594330,493.978851 
	C265.594330,459.864563 265.594330,426.508667 265.594330,392.077545 
	C267.489899,394.722076 268.715057,396.431244 270.060089,398.821136 
	C281.307678,417.237274 292.555298,435.653412 303.967072,454.757629 
z"/>
<path fill="#82C4EF" opacity="1.000000" stroke="none" 
	d="
M224.931976,133.800430 
	C233.854111,133.210052 242.771866,132.539078 251.699738,132.054199 
	C259.156586,131.649170 266.625275,131.462051 274.539185,131.688904 
	C274.990540,166.728622 274.991394,201.257904 274.671448,235.970108 
	C273.289856,236.620880 272.270996,237.305191 271.161194,237.520111 
	C265.527283,238.611160 264.372772,241.999435 264.448059,247.473343 
	C264.781494,271.716400 264.591949,295.966614 264.591644,320.214233 
	C264.591644,322.149231 264.591644,324.084259 264.591644,326.470520 
	C267.166870,325.773590 269.048431,325.264374 270.976227,325.189575 
	C271.348114,328.247406 271.944946,330.869629 271.956055,333.494385 
	C272.036865,352.547729 272.074860,371.602234 271.908447,390.654449 
	C271.886627,393.155304 270.626678,395.645386 269.940186,398.140442 
	C268.715057,396.431244 267.489899,394.722076 265.594330,392.077545 
	C265.594330,426.508667 265.594330,459.864563 265.594330,493.978851 
	C252.066345,493.978851 238.995193,493.978851 225.460968,493.448334 
	C224.998596,451.128937 225.007263,409.340027 224.998306,367.551147 
	C224.981613,289.634247 224.954651,211.717331 224.931976,133.800430 
z"/>
<path fill="#85CAF0" opacity="1.000000" stroke="none" 
	d="
M224.473724,133.719452 
	C224.954651,211.717331 224.981613,289.634247 224.998306,367.551147 
	C225.007263,409.340027 224.998596,451.128937 224.997009,493.375916 
	C213.305496,493.882172 201.614868,493.930359 189.461121,493.447754 
	C188.999329,373.923706 189.000641,254.930405 189.001953,135.937103 
	C200.673126,135.170883 212.344284,134.404678 224.473724,133.719452 
z"/>
<path fill="#89D7F2" opacity="1.000000" stroke="none" 
	d="
M156.995834,493.833588 
	C145.191925,493.833588 133.388016,493.833588 121.244476,493.833588 
	C121.244476,376.052612 121.244476,258.377899 121.244476,140.199097 
	C132.916992,139.440247 144.502869,138.687027 156.544006,138.460754 
	C156.998093,257.269684 156.996964,375.551636 156.995834,493.833588 
z"/>
<path fill="#7CB1ED" opacity="1.000000" stroke="none" 
	d="
M367.996246,493.833313 
	C357.639252,493.880554 347.282288,493.927826 336.461792,493.446167 
	C335.998871,454.346405 335.999634,415.775513 335.999908,377.204620 
	C336.000122,348.760590 336.015564,320.316528 335.973755,291.872559 
	C335.969818,289.177429 336.791351,285.944122 332.993652,284.634338 
	C339.260223,276.269867 343.268524,267.372894 344.657990,257.246552 
	C347.291840,238.051117 341.600891,226.852722 325.939667,220.694458 
	C325.608124,216.964249 325.024841,213.658997 325.050415,210.358490 
	C325.140442,198.737808 325.630554,187.118454 325.611633,175.499161 
	C325.587280,160.529007 325.218719,145.559433 324.998413,130.589600 
	C339.447876,131.913132 353.897400,133.236649 368.664673,135.190704 
	C368.951691,140.931931 368.935059,146.042786 368.883057,151.153275 
	C368.862793,153.146072 368.748260,155.137741 368.701965,157.130493 
	C368.521667,164.894379 368.244781,172.658081 368.213318,180.422699 
	C368.190613,186.021805 368.565979,191.621292 368.645691,197.222305 
	C368.772400,206.130569 368.818817,215.040176 368.857361,223.949387 
	C368.866699,226.105194 368.673859,228.261124 368.640411,230.418015 
	C368.517487,238.346664 368.360931,246.275574 368.338318,254.204742 
	C368.322815,259.639954 368.543030,265.075409 368.596039,270.511353 
	C368.679657,279.091553 368.720367,287.672272 368.759155,296.252838 
	C368.769653,298.574432 368.722931,300.896667 368.676514,303.218079 
	C368.521210,310.982666 368.299622,318.746338 368.208832,326.511627 
	C368.135773,332.761963 368.222748,339.014130 368.225433,345.265472 
	C368.228546,352.379242 368.160004,359.493530 368.226868,366.606598 
	C368.301300,374.529510 368.611267,382.451508 368.595612,390.373474 
	C368.583588,396.476685 368.056427,402.579620 368.069641,408.682007 
	C368.083588,415.117065 368.538757,421.549927 368.669220,427.986420 
	C368.806549,434.763458 368.911713,441.545563 368.804352,448.321899 
	C368.683990,455.920135 368.213593,463.512634 368.073029,471.110870 
	C367.932922,478.682922 368.012817,486.259003 367.996246,493.833313 
z"/>
<path fill="#6D81EA" opacity="1.000000" stroke="none" 
	d="
M643.981140,489.070892 
	C631.695312,483.961548 619.409485,478.852234 607.149536,473.134583 
	C607.450073,470.742798 607.964417,468.959412 607.964966,467.175934 
	C607.994385,365.423492 607.981079,263.671051 607.971985,161.918610 
	C619.397644,156.970810 630.823364,152.022995 642.694824,147.422760 
	C643.145874,153.522797 643.154724,159.275253 643.155518,165.027710 
	C643.156921,176.036057 643.123535,187.044510 643.166870,198.052673 
	C643.184998,202.654495 643.367188,207.255585 643.465820,211.857193 
	C643.578491,217.117706 643.796265,222.379181 643.763062,227.638931 
	C643.704956,236.845795 643.357971,246.051971 643.377441,255.257919 
	C643.397644,264.793488 643.873535,274.328857 643.846313,283.863495 
	C643.820435,292.906830 643.286377,301.947815 643.184448,310.992157 
	C643.060486,321.999146 643.125793,333.008759 643.168640,344.016968 
	C643.186584,348.619049 643.361206,353.220459 643.457642,357.822327 
	C643.574829,363.414612 643.803162,369.007721 643.770691,374.599243 
	C643.719116,383.479095 643.354919,392.358276 643.375183,401.237152 
	C643.396912,410.772705 643.874756,420.308075 643.847778,429.842682 
	C643.822266,438.886017 643.182068,447.928925 643.210693,456.970764 
	C643.244568,467.671509 643.705383,478.370911 643.981140,489.070892 
z"/>
<path fill="#87D1F1" opacity="1.000000" stroke="none" 
	d="
M157.459747,493.906494 
	C156.996964,375.551636 156.998093,257.269684 156.998932,138.522797 
	C167.359421,137.302246 177.720245,136.546646 188.541504,135.864075 
	C189.000641,254.930405 188.999329,373.923706 188.997238,493.375031 
	C178.638870,493.881836 168.281265,493.930634 157.459747,493.906494 
z"/>
<path fill="#6B7CE9" opacity="1.000000" stroke="none" 
	d="
M644.260986,489.308472 
	C643.705383,478.370911 643.244568,467.671509 643.210693,456.970764 
	C643.182068,447.928925 643.822266,438.886017 643.847778,429.842682 
	C643.874756,420.308075 643.396912,410.772705 643.375183,401.237152 
	C643.354919,392.358276 643.719116,383.479095 643.770691,374.599243 
	C643.803162,369.007721 643.574829,363.414612 643.457642,357.822327 
	C643.361206,353.220459 643.186584,348.619049 643.168640,344.016968 
	C643.125793,333.008759 643.060486,321.999146 643.184448,310.992157 
	C643.286377,301.947815 643.820435,292.906830 643.846313,283.863495 
	C643.873535,274.328857 643.397644,264.793488 643.377441,255.257919 
	C643.357971,246.051971 643.704956,236.845795 643.763062,227.638931 
	C643.796265,222.379181 643.578491,217.117706 643.465820,211.857193 
	C643.367188,207.255585 643.184998,202.654495 643.166870,198.052673 
	C643.123535,187.044510 643.156921,176.036057 643.155518,165.027710 
	C643.154724,159.275253 643.145874,153.522797 643.070557,147.414642 
	C653.013245,144.176086 663.026001,141.293243 673.503296,138.820496 
	C674.067871,142.175583 674.206665,145.119843 674.259766,148.065674 
	C674.354431,153.323471 674.392822,158.582291 674.463013,163.840561 
	C674.539795,169.598892 674.738647,175.358185 674.681458,181.115067 
	C674.595032,189.820251 674.235718,198.522949 674.171021,207.228027 
	C674.094177,217.568863 674.206482,227.911087 674.237244,238.252716 
	C674.251892,243.187393 674.213318,248.122986 674.296570,253.056503 
	C674.390747,258.641235 674.755127,264.225342 674.713623,269.807587 
	C674.648926,278.508423 674.205383,287.208557 674.275024,295.906158 
	C674.286133,297.290894 676.139893,298.660828 677.141724,300.037628 
	C673.281189,312.368622 670.746216,324.888123 673.010071,337.838379 
	C673.920349,343.046051 675.616943,348.116272 676.774658,353.958557 
	C676.192139,358.272186 675.473816,361.874329 675.451538,365.480774 
	C675.395691,374.512421 675.798706,383.546875 675.748901,392.578705 
	C675.697205,401.941101 675.144165,411.301971 675.152771,420.663147 
	C675.161011,429.691711 675.654053,438.718872 675.839478,447.748566 
	C675.934021,452.351135 675.826782,456.957977 675.800049,461.562836 
	C675.764893,467.629395 675.792297,473.697510 675.657166,479.761963 
	C675.529297,485.498993 675.226013,491.232117 674.999817,496.966980 
	C664.846863,494.493347 654.693848,492.019714 644.260986,489.308472 
z"/>
<path fill="#78A6ED" opacity="1.000000" stroke="none" 
	d="
M436.994141,493.832947 
	C424.637939,493.879822 412.281769,493.926697 399.461975,493.445435 
	C398.998932,380.926453 399.010620,268.935638 398.957733,156.944809 
	C398.955688,152.641663 398.332336,148.338821 397.998505,144.035828 
	C408.917877,150.087601 419.837250,156.139374 430.906769,162.937088 
	C431.069794,167.826263 431.089935,171.969482 431.094025,176.112717 
	C431.103241,185.415314 431.073700,194.718048 431.117065,204.020477 
	C431.167175,214.778168 431.359924,225.535706 431.342926,236.293091 
	C431.321930,249.565857 431.039429,262.838684 431.075409,276.110901 
	C431.105011,287.043457 431.598633,297.975342 431.588928,308.907257 
	C431.576752,322.670471 431.261688,336.433441 431.077332,350.196533 
	C423.130707,356.346558 415.184113,362.496582 406.985260,368.841827 
	C417.154602,382.196991 427.480682,395.758026 437.753784,410.026550 
	C437.467102,413.029816 437.034821,415.325195 437.030273,417.621429 
	C436.979950,443.025208 436.996033,468.429108 436.994141,493.832947 
z"/>
<path fill="#7AACED" opacity="1.000000" stroke="none" 
	d="
M397.727295,143.803009 
	C398.332336,148.338821 398.955688,152.641663 398.957733,156.944809 
	C399.010620,268.935638 398.998932,380.926453 398.997803,493.375305 
	C388.973053,493.880219 378.948914,493.927124 368.460510,493.903687 
	C368.012817,486.259003 367.932922,478.682922 368.073029,471.110870 
	C368.213593,463.512634 368.683990,455.920135 368.804352,448.321899 
	C368.911713,441.545563 368.806549,434.763458 368.669220,427.986420 
	C368.538757,421.549927 368.083588,415.117065 368.069641,408.682007 
	C368.056427,402.579620 368.583588,396.476685 368.595612,390.373474 
	C368.611267,382.451508 368.301300,374.529510 368.226868,366.606598 
	C368.160004,359.493530 368.228546,352.379242 368.225433,345.265472 
	C368.222748,339.014130 368.135773,332.761963 368.208832,326.511627 
	C368.299622,318.746338 368.521210,310.982666 368.676514,303.218079 
	C368.722931,300.896667 368.769653,298.574432 368.759155,296.252838 
	C368.720367,287.672272 368.679657,279.091553 368.596039,270.511353 
	C368.543030,265.075409 368.322815,259.639954 368.338318,254.204742 
	C368.360931,246.275574 368.517487,238.346664 368.640411,230.418015 
	C368.673859,228.261124 368.866699,226.105194 368.857361,223.949387 
	C368.818817,215.040176 368.772400,206.130569 368.645691,197.222305 
	C368.565979,191.621292 368.190613,186.021805 368.213318,180.422699 
	C368.244781,172.658081 368.521667,164.894379 368.701965,157.130493 
	C368.748260,155.137741 368.862793,153.146072 368.883057,151.153275 
	C368.935059,146.042786 368.951691,140.931931 368.996582,135.395111 
	C378.492493,137.836060 387.974304,140.703140 397.727295,143.803009 
z"/>
<path fill="#6E87EA" opacity="1.000000" stroke="none" 
	d="
M607.616760,161.972137 
	C607.981079,263.671051 607.994385,365.423492 607.964966,467.175934 
	C607.964417,468.959412 607.450073,470.742798 606.913696,472.874512 
	C596.509888,466.689667 586.367859,460.156525 576.399536,453.154755 
	C577.048706,450.508850 577.938538,448.331909 577.940308,446.154236 
	C578.010559,361.059143 578.012207,275.964020 577.951294,190.868896 
	C577.949097,187.746140 577.230225,184.623901 576.845337,181.501419 
	C586.984009,175.009491 597.122803,168.517578 607.616760,161.972137 
z"/>
<path fill="#708CEB" opacity="1.000000" stroke="none" 
	d="
M576.528320,181.656921 
	C577.230225,184.623901 577.949097,187.746140 577.951294,190.868896 
	C578.012207,275.964020 578.010559,361.059143 577.940308,446.154236 
	C577.938538,448.331909 577.048706,450.508850 576.221191,452.865997 
	C566.295776,443.616119 556.722229,434.186371 547.205627,424.047821 
	C547.508484,415.748199 547.938721,408.158051 547.966370,400.566437 
	C548.056641,375.790924 547.916260,351.014526 548.025513,326.239166 
	C548.119324,304.954346 548.571472,283.670685 548.603760,262.386139 
	C548.626770,247.259293 548.255615,232.131012 547.950928,217.005554 
	C547.908325,214.892014 547.238708,212.791092 546.859314,210.684326 
	C556.643311,201.060364 566.427307,191.436386 576.528320,181.656921 
z"/>
<path fill="#6461E7" opacity="1.000000" stroke="none" 
	d="
M788.943542,325.833618 
	C802.645264,325.753937 816.346924,325.674286 830.511230,326.094421 
	C830.894104,332.360229 830.813416,338.126312 830.734802,343.892365 
	C830.549866,357.454620 830.230042,371.016846 830.225464,384.579132 
	C830.221985,395.132843 830.816223,405.687469 830.774170,416.240204 
	C830.722717,429.138245 830.052124,442.035187 830.078735,454.931732 
	C830.104858,467.610931 830.668701,480.289032 830.996643,492.967651 
	C817.300659,494.747925 803.604675,496.528198 789.456787,497.780945 
	C788.984436,440.113495 788.963989,382.973541 788.943542,325.833618 
z"/>
<path fill="#6668E9" opacity="1.000000" stroke="none" 
	d="
M788.487671,325.731873 
	C788.963989,382.973541 788.984436,440.113495 789.006470,497.738220 
	C776.626709,499.445251 764.245239,500.667542 751.429810,501.420837 
	C750.991272,493.191101 751.102173,485.428131 750.955078,477.670044 
	C750.730225,465.814209 750.090454,453.962219 750.068359,442.107788 
	C750.047302,430.826965 750.859192,419.544342 750.826355,408.263885 
	C750.777161,391.360626 750.129395,374.459076 750.085999,357.555878 
	C750.058899,346.983582 750.674438,336.409637 751.001648,325.836426 
	C763.345032,325.767670 775.688416,325.698914 788.487671,325.731873 
z"/>
<path fill="#75A0EC" opacity="1.000000" stroke="none" 
	d="
M431.396606,350.076599 
	C431.261688,336.433441 431.576752,322.670471 431.588928,308.907257 
	C431.598633,297.975342 431.105011,287.043457 431.075409,276.110901 
	C431.039429,262.838684 431.321930,249.565857 431.342926,236.293091 
	C431.359924,225.535706 431.167175,214.778168 431.117065,204.020477 
	C431.073700,194.718048 431.103241,185.415314 431.094025,176.112717 
	C431.089935,171.969482 431.069794,167.826263 431.075348,163.221954 
	C455.126556,181.310822 469.527771,205.851364 474.489532,235.528259 
	C479.511383,265.564392 475.604218,294.523285 457.946838,320.046936 
	C450.451965,330.880768 440.533112,340.037628 431.396606,350.076599 
z"/>
<path fill="#676FE9" opacity="1.000000" stroke="none" 
	d="
M750.596130,325.733582 
	C750.674438,336.409637 750.058899,346.983582 750.085999,357.555878 
	C750.129395,374.459076 750.777161,391.360626 750.826355,408.263885 
	C750.859192,419.544342 750.047302,430.826965 750.068359,442.107788 
	C750.090454,453.962219 750.730225,465.814209 750.955078,477.670044 
	C751.102173,485.428131 750.991272,493.191101 750.996460,501.376221 
	C736.968567,501.793060 722.940125,501.785522 708.455078,501.221191 
	C707.999023,463.799347 707.974976,426.934235 708.044189,390.069336 
	C708.050049,386.947144 708.679688,383.826141 709.019531,380.704590 
	C717.922119,380.508453 726.827393,380.391205 735.725891,380.078857 
	C739.486755,379.946777 741.000061,377.917358 740.955994,373.946838 
	C740.799622,359.834229 740.975403,345.717896 741.023376,331.602997 
	C741.029480,329.804413 741.024170,328.005737 741.024170,325.630768 
	C744.332703,325.630768 747.261658,325.630768 750.596130,325.733582 
z"/>
<path fill="#7191EA" opacity="1.000000" stroke="none" 
	d="
M546.563843,210.862015 
	C547.238708,212.791092 547.908325,214.892014 547.950928,217.005554 
	C548.255615,232.131012 548.626770,247.259293 548.603760,262.386139 
	C548.571472,283.670685 548.119324,304.954346 548.025513,326.239166 
	C547.916260,351.014526 548.056641,375.790924 547.966370,400.566437 
	C547.938721,408.158051 547.508484,415.748199 547.101318,423.730042 
	C529.069641,402.034821 517.960327,376.830414 513.409912,348.909698 
	C507.901825,315.112976 509.682220,281.835754 523.007019,249.810745 
	C528.848267,235.771698 536.470337,222.736786 546.563843,210.862015 
z"/>
<path fill="#7EB6EE" opacity="1.000000" stroke="none" 
	d="
M332.854858,284.947205 
	C336.791351,285.944122 335.969818,289.177429 335.973755,291.872559 
	C336.015564,320.316528 336.000122,348.760590 335.999908,377.204620 
	C335.999634,415.775513 335.998871,454.346405 335.997711,493.375305 
	C330.026031,495.240845 326.507050,492.957916 323.521698,487.463257 
	C317.462921,476.311768 310.536102,465.631897 304.243591,454.274353 
	C305.345856,451.592651 306.832733,449.407684 306.877899,447.193298 
	C307.036224,439.433624 306.582916,431.663910 306.577179,423.897827 
	C306.570129,414.290985 306.808838,404.684204 306.881592,395.076935 
	C306.926483,389.150269 306.856598,383.222778 306.844330,377.295654 
	C306.829254,370.011810 306.855835,362.727661 306.799072,355.444183 
	C306.743713,348.338806 306.626526,341.233734 306.499268,334.129181 
	C306.342590,325.384979 306.147369,316.641479 306.156128,307.618958 
	C316.420074,301.343414 325.340179,293.977264 332.854858,284.947205 
z"/>
<path fill="#7FBBEF" opacity="1.000000" stroke="none" 
	d="
M324.545013,130.462921 
	C325.218719,145.559433 325.587280,160.529007 325.611633,175.499161 
	C325.630554,187.118454 325.140442,198.737808 325.050415,210.358490 
	C325.024841,213.658997 325.608124,216.964249 325.485535,220.740417 
	C317.917938,222.341599 310.537231,222.687378 303.693359,224.784714 
	C293.920227,227.779709 284.540192,232.057343 274.992249,235.787170 
	C274.991394,201.257904 274.990540,166.728622 274.989197,131.749908 
	C291.356384,130.979050 307.723999,130.657639 324.545013,130.462921 
z"/>
<path fill="#676FE9" opacity="1.000000" stroke="none" 
	d="
M702.002197,133.463882 
	C713.680481,132.523865 725.358826,131.583862 737.502563,131.168427 
	C737.741211,134.814972 737.305725,137.938553 737.329895,141.058578 
	C737.384583,148.120438 737.814026,155.180527 737.814209,162.241333 
	C737.814392,169.469360 737.438293,176.696625 737.315186,183.925705 
	C737.234070,188.685028 737.244934,193.448120 737.328552,198.207520 
	C737.467346,206.100174 737.866760,213.991699 737.842224,221.882736 
	C737.817627,229.770172 737.407532,237.656403 737.166382,245.543167 
	C724.732544,249.312622 713.735229,255.731888 703.078247,263.505585 
	C702.371216,261.130798 702.025452,258.991425 702.023804,256.851776 
	C701.992493,215.722504 702.001526,174.593185 702.002197,133.463882 
z"/>
<path fill="#6A76E9" opacity="1.000000" stroke="none" 
	d="
M708.705627,380.511902 
	C708.679688,383.826141 708.050049,386.947144 708.044189,390.069336 
	C707.974976,426.934235 707.999023,463.799347 707.999878,501.102966 
	C697.239258,500.128082 686.477417,498.714661 675.357666,497.134094 
	C675.226013,491.232117 675.529297,485.498993 675.657166,479.761963 
	C675.792297,473.697510 675.764893,467.629395 675.800049,461.562836 
	C675.826782,456.957977 675.934021,452.351135 675.839478,447.748566 
	C675.654053,438.718872 675.161011,429.691711 675.152771,420.663147 
	C675.144165,411.301971 675.697205,401.941101 675.748901,392.578705 
	C675.798706,383.546875 675.395691,374.512421 675.451538,365.480774 
	C675.473816,361.874329 676.192139,358.272186 676.801025,354.331818 
	C682.812012,365.156677 690.758362,374.093445 702.820068,378.698547 
	C704.621033,379.386139 706.531738,379.786163 708.705627,380.511902 
z"/>
<path fill="#615BE4" opacity="1.000000" stroke="none" 
	d="
M831.426758,493.000000 
	C830.668701,480.289032 830.104858,467.610931 830.078735,454.931732 
	C830.052124,442.035187 830.722717,429.138245 830.774170,416.240204 
	C830.816223,405.687469 830.221985,395.132843 830.225464,384.579132 
	C830.230042,371.016846 830.549866,357.454620 830.734802,343.892365 
	C830.813416,338.126312 830.894104,332.360229 830.962280,326.207886 
	C838.712646,325.821594 846.474609,325.821594 854.647888,325.821594 
	C854.737183,327.302826 854.918457,328.910675 854.918884,330.518585 
	C854.933716,381.765228 854.875793,433.012024 855.031677,484.258179 
	C855.044739,488.541077 853.874817,490.017517 849.593018,490.344757 
	C843.647217,490.799164 837.765869,492.096100 831.426758,493.000000 
z"/>
<path fill="#6A76E9" opacity="1.000000" stroke="none" 
	d="
M701.606384,133.450012 
	C702.001526,174.593185 701.992493,215.722504 702.023804,256.851776 
	C702.025452,258.991425 702.371216,261.130798 702.762329,263.626587 
	C691.770325,273.873108 683.042236,285.523956 677.382263,299.785645 
	C676.139893,298.660828 674.286133,297.290894 674.275024,295.906158 
	C674.205383,287.208557 674.648926,278.508423 674.713623,269.807587 
	C674.755127,264.225342 674.390747,258.641235 674.296570,253.056503 
	C674.213318,248.122986 674.251892,243.187393 674.237244,238.252716 
	C674.206482,227.911087 674.094177,217.568863 674.171021,207.228027 
	C674.235718,198.522949 674.595032,189.820251 674.681458,181.115067 
	C674.738647,175.358185 674.539795,169.598892 674.463013,163.840561 
	C674.392822,158.582291 674.354431,153.323471 674.259766,148.065674 
	C674.206665,145.119843 674.067871,142.175583 673.926147,138.782745 
	C682.993286,136.701965 692.101929,135.069046 701.606384,133.450012 
z"/>
<path fill="#7FBBEF" opacity="1.000000" stroke="none" 
	d="
M305.968842,307.897644 
	C306.147369,316.641479 306.342590,325.384979 306.499268,334.129181 
	C306.626526,341.233734 306.743713,348.338806 306.799072,355.444183 
	C306.855835,362.727661 306.829254,370.011810 306.844330,377.295654 
	C306.856598,383.222778 306.926483,389.150269 306.881592,395.076935 
	C306.808838,404.684204 306.570129,414.290985 306.577179,423.897827 
	C306.582916,431.663910 307.036224,439.433624 306.877899,447.193298 
	C306.832733,449.407684 305.345856,451.592651 304.161499,453.930328 
	C292.555298,435.653412 281.307678,417.237274 270.000122,398.480774 
	C270.626678,395.645386 271.886627,393.155304 271.908447,390.654449 
	C272.074860,371.602234 272.036865,352.547729 271.956055,333.494385 
	C271.944946,330.869629 271.348114,328.247406 271.216187,324.939575 
	C282.929565,318.802673 294.449188,313.350159 305.968842,307.897644 
z"/>
<path fill="#625FE5" opacity="1.000000" stroke="none" 
	d="
M800.992065,134.132248 
	C812.428894,136.973404 823.901917,139.685028 835.249023,142.847870 
	C836.437439,143.179123 837.556885,146.171158 837.570190,147.937256 
	C837.729309,169.100555 837.673279,190.265503 837.673401,211.430008 
	C837.673523,224.075897 837.673401,236.721786 837.673401,249.511871 
	C825.089661,246.941269 812.943420,244.460037 800.492554,241.483521 
	C800.458313,238.519424 800.960449,236.050980 800.964172,233.581802 
	C801.014160,200.432007 800.994446,167.282120 800.992065,134.132248 
z"/>
<path fill="#6668E9" opacity="1.000000" stroke="none" 
	d="
M800.595703,134.013092 
	C800.994446,167.282120 801.014160,200.432007 800.964172,233.581802 
	C800.960449,236.050980 800.458313,238.519424 800.090576,241.379761 
	C789.651672,241.302628 779.309998,240.833923 768.499268,239.802002 
	C768.235107,226.933029 768.628113,214.626862 768.600281,202.321640 
	C768.559998,184.519867 768.115479,166.719131 768.055664,148.917236 
	C768.035706,142.953461 768.665833,136.987534 768.998779,131.022583 
	C779.398926,131.979706 789.799133,132.936829 800.595703,134.013092 
z"/>
<path fill="#666BE8" opacity="1.000000" stroke="none" 
	d="
M768.586182,130.918930 
	C768.665833,136.987534 768.035706,142.953461 768.055664,148.917236 
	C768.115479,166.719131 768.559998,184.519867 768.600281,202.321640 
	C768.628113,214.626862 768.235107,226.933029 768.040771,239.721375 
	C758.021301,241.931091 747.991333,243.658234 737.563843,245.464264 
	C737.407532,237.656403 737.817627,229.770172 737.842224,221.882736 
	C737.866760,213.991699 737.467346,206.100174 737.328552,198.207520 
	C737.244934,193.448120 737.234070,188.685028 737.315186,183.925705 
	C737.438293,176.696625 737.814392,169.469360 737.814209,162.241333 
	C737.814026,155.180527 737.384583,148.120438 737.329895,141.058578 
	C737.305725,137.938553 737.741211,134.814972 737.961975,131.255188 
	C748.028503,130.816681 758.101013,130.815979 768.586182,130.918930 
z"/>
<path fill="#75A0EC" opacity="1.000000" stroke="none" 
	d="
M437.458618,493.903168 
	C436.996033,468.429108 436.979950,443.025208 437.030273,417.621429 
	C437.034821,415.325195 437.467102,413.029816 437.860687,410.346161 
	C453.747314,430.405334 469.480652,450.847260 485.197083,471.302185 
	C490.756470,478.537720 496.274628,485.804901 502.510712,493.973358 
	C480.338409,493.973358 459.130737,493.973358 437.458618,493.903168 
z"/>
<path fill="#081F3D" opacity="1.000000" stroke="none" 
	d="
M306.156128,307.618958 
	C294.449188,313.350159 282.929565,318.802673 271.169983,324.505188 
	C269.048431,325.264374 267.166870,325.773590 264.591644,326.470520 
	C264.591644,324.084259 264.591644,322.149231 264.591644,320.214233 
	C264.591949,295.966614 264.781494,271.716400 264.448059,247.473343 
	C264.372772,241.999435 265.527283,238.611160 271.161194,237.520111 
	C272.270996,237.305191 273.289856,236.620880 274.671448,235.970093 
	C284.540192,232.057343 293.920227,227.779709 303.693359,224.784714 
	C310.537231,222.687378 317.917938,222.341599 325.513000,221.167572 
	C341.600891,226.852722 347.291840,238.051117 344.657990,257.246552 
	C343.268524,267.372894 339.260223,276.269867 332.993652,284.634338 
	C325.340179,293.977264 316.420074,301.343414 306.156128,307.618958 
z"/>
</svg>